<svg class="animated" id="freepik_stories-video-tutorial" xmlns="http://www.w3.org/2000/svg" viewBox="0 0 500 500" version="1.1" xmlns:xlink="http://www.w3.org/1999/xlink" xmlns:svgjs="http://svgjs.com/svgjs"><style>svg#freepik_stories-video-tutorial:not(.animated) .animable {opacity: 0;}svg#freepik_stories-video-tutorial.animated #freepik--Floor--inject-94 {animation: 1s 1 forwards cubic-bezier(.36,-0.01,.5,1.38) slideLeft;animation-delay: 0s;}svg#freepik_stories-video-tutorial.animated #freepik--Clouds--inject-94 {animation: 1s 1 forwards cubic-bezier(.36,-0.01,.5,1.38) slideRight,6s Infinite  linear heartbeat;animation-delay: 0s,1s;}svg#freepik_stories-video-tutorial.animated #freepik--Shadows--inject-94 {animation: 1s 1 forwards cubic-bezier(.36,-0.01,.5,1.38) slideDown;animation-delay: 0s;}svg#freepik_stories-video-tutorial.animated #freepik--table--inject-94 {animation: 1s 1 forwards cubic-bezier(.36,-0.01,.5,1.38) lightSpeedRight;animation-delay: 0s;}svg#freepik_stories-video-tutorial.animated #freepik--Table--inject-94 {animation: 1s 1 forwards cubic-bezier(.36,-0.01,.5,1.38) lightSpeedRight;animation-delay: 0s;}svg#freepik_stories-video-tutorial.animated #freepik--device--inject-94 {animation: 1s 1 forwards cubic-bezier(.36,-0.01,.5,1.38) lightSpeedRight;animation-delay: 0s;}svg#freepik_stories-video-tutorial.animated #freepik--Device--inject-94 {animation: 1s 1 forwards cubic-bezier(.36,-0.01,.5,1.38) lightSpeedRight;animation-delay: 0s;}svg#freepik_stories-video-tutorial.animated #freepik--window--inject-94 {animation: 1s 1 forwards cubic-bezier(.36,-0.01,.5,1.38) slideUp;animation-delay: 0s;}svg#freepik_stories-video-tutorial.animated #freepik--Window--inject-94 {animation: 1s 1 forwards cubic-bezier(.36,-0.01,.5,1.38) slideUp;animation-delay: 0s;}svg#freepik_stories-video-tutorial.animated #freepik--Video--inject-94 {animation: 1s 1 forwards cubic-bezier(.36,-0.01,.5,1.38) slideRight,3s Infinite  linear floating;animation-delay: 0s,1s;}svg#freepik_stories-video-tutorial.animated #freepik--Character--inject-94 {animation: 1s 1 forwards cubic-bezier(.36,-0.01,.5,1.38) lightSpeedLeft,3s Infinite  linear floating;animation-delay: 0s,1s;}svg#freepik_stories-video-tutorial.animated #freepik--Scissors--inject-94 {animation: 1s 1 forwards cubic-bezier(.36,-0.01,.5,1.38) slideUp;animation-delay: 0s;}svg#freepik_stories-video-tutorial.animated #freepik--Pencil--inject-94 {animation: 1s 1 forwards cubic-bezier(.36,-0.01,.5,1.38) slideRight;animation-delay: 0s;}            @keyframes slideLeft {                0% {                    opacity: 0;                    transform: translateX(-30px);                }                100% {                    opacity: 1;                    transform: translateX(0);                }            }                    @keyframes slideRight {                0% {                    opacity: 0;                    transform: translateX(30px);                }                100% {                    opacity: 1;                    transform: translateX(0);                }            }                    @keyframes heartbeat {                0% {                    transform: scale(1);                }                10% {                    transform: scale(1.1);                }                30% {                    transform: scale(1);                }                40% {                    transform: scale(1);                }                50% {                    transform: scale(1.1);                }                60% {                    transform: scale(1);                }                100% {                    transform: scale(1);                }            }                    @keyframes slideDown {                0% {                    opacity: 0;                    transform: translateY(-30px);                }                100% {                    opacity: 1;                    transform: translateY(0);                }            }                    @keyframes lightSpeedRight {              from {                transform: translate3d(50%, 0, 0) skewX(-20deg);                opacity: 0;              }              60% {                transform: skewX(10deg);                opacity: 1;              }              80% {                transform: skewX(-2deg);              }              to {                opacity: 1;                transform: translate3d(0, 0, 0);              }            }                    @keyframes slideUp {                0% {                    opacity: 0;                    transform: translateY(30px);                }                100% {                    opacity: 1;                    transform: inherit;                }            }                    @keyframes floating {                0% {                    opacity: 1;                    transform: translateY(0px);                }                50% {                    transform: translateY(-10px);                }                100% {                    opacity: 1;                    transform: translateY(0px);                }            }                    @keyframes lightSpeedLeft {              from {                transform: translate3d(-50%, 0, 0) skewX(20deg);                opacity: 0;              }              60% {                transform: skewX(-10deg);                opacity: 1;              }              80% {                transform: skewX(2deg);              }              to {                opacity: 1;                transform: translate3d(0, 0, 0);              }            }        </style><g id="freepik--Floor--inject-94" class="animable" style="transform-origin: 250.64px 365.18px;"><ellipse id="freepik--floor--inject-94" cx="250.64" cy="365.18" rx="240.31" ry="124.36" style="fill: rgb(245, 245, 245); transform-origin: 250.64px 365.18px;" class="animable"></ellipse></g><g id="freepik--Clouds--inject-94" class="animable" style="transform-origin: 85.095px 78.6664px;"><g id="freepik--clouds--inject-94" class="animable" style="transform-origin: 85.095px 78.6664px;"><path d="M88.39,56.58l-9.18,5.3c0-.41.08-.82.08-1.22V58c0-4.74-3.33-6.65-7.42-4.29A14.5,14.5,0,0,0,67.44,58c-.67-5.95-5.34-8.16-11-4.89-6.13,3.54-11.1,12.15-11.1,19.23v4a10.33,10.33,0,0,0,.94,4.61l-7.63,4.4a9.12,9.12,0,0,0-4.11,7.13c0,2.63,1.84,3.69,4.11,2.38L88.39,66.09A9.12,9.12,0,0,0,92.5,59C92.5,56.33,90.66,55.27,88.39,56.58Z" style="fill: rgb(235, 235, 235); transform-origin: 63.52px 73.509px;" id="elyhfvret5fn" class="animable"></path><path d="M132.55,76.46l-6.93,4a7.07,7.07,0,0,0,.06-.91v-2c0-3.57-2.51-5-5.6-3.23a10.92,10.92,0,0,0-3.34,3.21c-.5-4.49-4-6.17-8.3-3.7-4.63,2.67-8.38,9.17-8.38,14.51v3a7.81,7.81,0,0,0,.71,3.48L95,98.13a6.87,6.87,0,0,0-3.1,5.38c0,2,1.39,2.79,3.1,1.8l37.54-21.67a6.89,6.89,0,0,0,3.11-5.38C135.66,76.28,134.26,75.47,132.55,76.46Z" style="fill: rgb(235, 235, 235); transform-origin: 113.775px 89.2127px;" id="elam53sngwd5g" class="animable"></path></g></g><g id="freepik--Shadows--inject-94" class="animable" style="transform-origin: 243.449px 363.059px;"><ellipse id="freepik--Shadow--inject-94" cx="397.58" cy="324.96" rx="52.33" ry="30.22" style="fill: rgb(224, 224, 224); transform-origin: 397.58px 324.96px;" class="animable"></ellipse><path id="freepik--shadow--inject-94" d="M361.25,460.19a22.53,22.53,0,0,1-6.07-.87c-6-1.67-7.81-4.79-8.32-7.11-.81-3.76,1.45-7.65,4-9.84.93-.78,2-1.6,3.1-2.45,2.88-2.22,6.46-5,7.29-7.11l4-10.38-3.05-1.76.66-1.53-3.18.68-1.43-1.91c-3.16,1.52-10.93,5.29-21.35,10.5-2.4,1.2-4.42,2.24-6.19,3.15-5.85,3-9.08,4.68-14,5.85a23.64,23.64,0,0,1-5.52.69c-3.83,0-6.83-1.09-8.67-3.15a8.69,8.69,0,0,1-1.93-7.06c1.09-9.78,20.16-18.31,30.06-19.2,3.25-.3,6.32-.44,9.64-.44,1.61,0,3.06,0,4.36.07,1,0,2,0,2.85,0s1.67,0,2.39-.09c3.75-.34,15.41-2.5,15.53-2.52l1.27-.23.78,1,2.91-.56c3.85-2.73,33.31-23.61,40.26-28.39,4.34-3,12.11-7.7,14.47-7.7h1.27l.78,1.18.6,1.12-.8,1.32c-.17.28-5.13,8-11.12,12.75-2.48,2-9.64,8.05-16.76,14.15L453,390l-2.36,4c-.65,1.13-4.15,4.32-22.3,9.69-10.93,3.22-30.89,7.85-45.92,11.2L380,417c-.17,2.68-.71,10.83-1.07,15.1a16.42,16.42,0,0,0,.78,5.1c.92,3.59,2.05,8.07-.9,12.65C376.29,453.72,370.69,460.19,361.25,460.19Zm3.8-15.51a9.77,9.77,0,0,0-7.06,2.77,2.45,2.45,0,0,0-.73,2.07,3.27,3.27,0,0,0,2.36,1.76,8.57,8.57,0,0,0,2.38.31,9.81,9.81,0,0,0,7.07-2.77,2.4,2.4,0,0,0,.72-2.07,3.22,3.22,0,0,0-2.36-1.75A8.51,8.51,0,0,0,365.05,444.68Zm-27.58-28.6a38,38,0,0,0-11.61,2c-10.34,3.4-13.59,7.63-14.6,9.85-.13.28-.41,1-.17,1.35a2.1,2.1,0,0,0,1.72.61,4,4,0,0,0,1-.13,16.54,16.54,0,0,0,5.36-2.57,65.57,65.57,0,0,1,6.5-3.7,123.66,123.66,0,0,1,16.69-6.75l.18-.07A19.16,19.16,0,0,0,337.47,416.08Z" style="fill: rgb(224, 224, 224); transform-origin: 376.734px 415.01px;" class="animable"></path><path id="freepik--shadow--inject-94" d="M176.75,455.26c-5.17,2.64,7.9,11.84,14.36,8.29L305.2,396.77l13.59-14.34a.91.91,0,0,0-.92-1.49l-26.22,8Z" style="fill: rgb(224, 224, 224); transform-origin: 247.298px 422.63px;" class="animable"></path><path id="freepik--shadow--inject-94" d="M79.49,434.39,35.75,409.13c-2.47-1.42-2.47-3.73,0-5.15L280.51,262.83a9.89,9.89,0,0,1,8.93,0l43.75,25.26c2.46,1.42,2.46,3.73,0,5.15L88.42,434.39A9.89,9.89,0,0,1,79.49,434.39Z" style="fill: rgb(224, 224, 224); transform-origin: 184.466px 348.61px;" class="animable"></path></g><g id="freepik--Table--inject-94" class="animable animator-active" style="transform-origin: 397.599px 289.884px;"><g id="freepik--table--inject-94" class="animable" style="transform-origin: 397.599px 289.884px;"><g id="freepik--table--inject-94" class="animable" style="transform-origin: 397.599px 295.906px;"><path d="M361.05,299.18a1.39,1.39,0,0,1,.82-1.15,4.36,4.36,0,0,1,3.95,0,1.41,1.41,0,0,1,.82,1.15l-5.1,26.15h0a1,1,0,0,1-.58.79,3.05,3.05,0,0,1-2.79,0,1,1,0,0,1-.58-.79h0Z" style="fill: rgb(69, 90, 100); transform-origin: 362.115px 312.007px;" id="el5wbbnxhymj" class="animable"></path><path d="M433.42,299.18a1.4,1.4,0,0,0-.81-1.15,4.38,4.38,0,0,0-4,0,1.4,1.4,0,0,0-.81,1.15l5.09,26.15h0a1,1,0,0,0,.57.79,3.07,3.07,0,0,0,2.8,0,1,1,0,0,0,.57-.79h0Z" style="fill: rgb(69, 90, 100); transform-origin: 432.315px 312.002px;" id="el55tivfxkaao" class="animable"></path><path d="M400.37,303.05a1.38,1.38,0,0,0-.82-1.14,4.36,4.36,0,0,0-3.95,0,1.4,1.4,0,0,0-.82,1.14l.82,37.3h0a1,1,0,0,0,.58.79,3.11,3.11,0,0,0,2.79,0,1,1,0,0,0,.58-.79h0Z" style="fill: rgb(69, 90, 100); transform-origin: 397.575px 321.454px;" id="elzoheyd8mlas" class="animable"></path><path d="M447.66,279.25h-.05c0-7.4-4.84-14.8-14.62-20.44-19.56-11.29-51.27-11.29-70.82,0-9.78,5.64-14.63,13-14.63,20.44h0v4h0c.11,7.3,5,14.58,14.67,20.15,19.55,11.29,51.26,11.29,70.82,0,9.65-5.57,14.55-12.85,14.67-20.15h0Z" style="fill: #68B7C8; transform-origin: 397.62px 281.105px;" id="elx8env413ojh" class="animable"></path><path d="M362.16,258.81c-19.55,11.29-19.55,29.6,0,40.89s51.26,11.29,70.82,0,19.56-29.6,0-40.89S381.72,247.52,362.16,258.81Z" style="fill: #68B7C8; transform-origin: 397.574px 279.255px;" id="elbjbpqusw3e" class="animable"></path><g id="elwdq4fyah7vi"><path d="M362.16,258.81c-19.55,11.29-19.55,29.6,0,40.89s51.26,11.29,70.82,0,19.56-29.6,0-40.89S381.72,247.52,362.16,258.81Z" style="fill: rgb(255, 255, 255); opacity: 0.45; transform-origin: 397.574px 279.255px;" class="animable" id="ellx49buwbui"></path></g></g><g id="freepik--Pot--inject-94" class="animable" style="transform-origin: 397.49px 264.201px;"><g id="el3441lronaxj"><g style="opacity: 0.05; transform-origin: 397.257px 280.918px;" class="animable" id="el07v7t7elthzu"><path d="M408.55,274.42c6.24,3.6,6.24,9.44,0,13s-16.36,3.6-22.59,0-6.24-9.44,0-13S402.31,270.81,408.55,274.42Z" id="elqeoub5ga2i" class="animable" style="transform-origin: 397.257px 280.918px;"></path></g></g><path d="M387.32,281.74c-5.44-5.54-8.63-19.38-3.33-23.78h27c5.3,4.4,2.11,18.23-3.32,23.78l-.14.15-.19.18c-.16.15-.32.3-.49.44l-.13.1-.41.31a6,6,0,0,1-.71.45c-4.46,2.58-11.71,2.58-16.18,0h0c-.24-.13-.47-.29-.71-.45l-.38-.29-.16-.13a3.8,3.8,0,0,1-.47-.42l-.22-.21A.74.74,0,0,1,387.32,281.74Z" style="fill: rgb(235, 235, 235); transform-origin: 397.49px 271.632px;" id="el4svf0n2zb5g" class="animable"></path><path d="M408.61,256.19c6.15,3.55,6.15,9.31,0,12.86s-16.12,3.55-22.28,0-6.15-9.31,0-12.86S402.46,252.64,408.61,256.19Z" style="fill: rgb(250, 250, 250); transform-origin: 397.468px 262.62px;" id="elqzr8wwmj5j" class="animable"></path><path d="M404.25,258.71c3.74,2.16,3.74,5.66,0,7.82a15,15,0,0,1-13.55,0c-3.75-2.16-3.75-5.66,0-7.82A15,15,0,0,1,404.25,258.71Z" style="fill: rgb(235, 235, 235); transform-origin: 397.471px 262.62px;" id="el77ktdaiqf83" class="animable"></path><path d="M390.7,262.42a15,15,0,0,1,13.55,0,6.19,6.19,0,0,1,2.24,2.06,6.18,6.18,0,0,1-2.24,2,15,15,0,0,1-13.55,0,6.3,6.3,0,0,1-2.25-2A6.32,6.32,0,0,1,390.7,262.42Z" style="fill: rgb(224, 224, 224); transform-origin: 397.47px 264.45px;" id="el4rd7ml87iqq" class="animable"></path><path d="M403.42,264.48a31,31,0,0,0,4.91-6.52c2.26-4,2.68-9.37,1.51-10s-5.94,4.69-5.94,4.69a28.78,28.78,0,0,0,.51-6.84c-.2-3.56-1.07-6.8-2.09-7.45s-3.31,3.84-4.29,7.1-1.57,5.94-1.57,5.94a49.57,49.57,0,0,0-1.75-7.5c-1.19-3.39-2.27-4.15-3.1-3.82s-1.39,1.92-1.64,6.42a44.32,44.32,0,0,0,.21,6.46s-1.68-1.85-3.55-3.64c-2.05-2-2.92-2.24-3.51-1.87s-.75,3.44,2.43,9.18a31.9,31.9,0,0,0,6,7.88S395.92,267.31,403.42,264.48Z" style="fill: #68B7C8; transform-origin: 396.627px 252.021px;" id="elg1dk1jyvz17" class="animable"></path><g id="elwa7ve1zyiaf"><path d="M403.42,264.48a31,31,0,0,0,4.91-6.52c2.26-4,2.68-9.37,1.51-10s-5.94,4.69-5.94,4.69a28.78,28.78,0,0,0,.51-6.84c-.2-3.56-1.07-6.8-2.09-7.45s-3.31,3.84-4.29,7.1-1.57,5.94-1.57,5.94a49.57,49.57,0,0,0-1.75-7.5c-1.19-3.39-2.27-4.15-3.1-3.82s-1.39,1.92-1.64,6.42a44.32,44.32,0,0,0,.21,6.46s-1.68-1.85-3.55-3.64c-2.05-2-2.92-2.24-3.51-1.87s-.75,3.44,2.43,9.18a31.9,31.9,0,0,0,6,7.88S395.92,267.31,403.42,264.48Z" style="opacity: 0.3; transform-origin: 396.627px 252.021px;" class="animable" id="elw1qnr0cxgj"></path></g></g></g></g><g id="freepik--Device--inject-94" class="animable" style="transform-origin: 192.78px 217.361px;"><g id="freepik--device--inject-94" class="animable" style="transform-origin: 192.78px 217.361px;"><path d="M227.05,395.14l37.6-21.75c3.88-2.23,5.82-5.17,5.82-8.1s0-5.23,0-5.23l-39-22a8.29,8.29,0,0,1-3.75-6.49V285.21l-65.68,38v46.37a8.25,8.25,0,0,0,3.74,6.48L199,395.14C206.73,399.61,219.3,399.61,227.05,395.14Z" style="fill: #68B7C8; transform-origin: 216.255px 341.851px;" id="elu0ssorvrs8" class="animable"></path><g id="ely3gnroxhg6d"><g style="opacity: 0.6; transform-origin: 216.255px 341.851px;" class="animable" id="ely0snc0w544"><path d="M227.05,395.14l37.6-21.75c3.88-2.23,5.82-5.17,5.82-8.1s0-5.23,0-5.23l-39-22a8.29,8.29,0,0,1-3.75-6.49V285.21l-65.68,38v46.37a8.25,8.25,0,0,0,3.74,6.48L199,395.14C206.73,399.61,219.3,399.61,227.05,395.14Z" id="ela4lzg5bsfmf" class="animable" style="transform-origin: 216.255px 341.851px;"></path></g></g><g id="el6zks1ojoz2e"><path d="M177.81,377.74V383l-12-6.94a8.3,8.3,0,0,1-3.74-6.48V323.17L174.55,316c.25,3.17.54,6.46.8,9.66l-8.78,5.08v36.22a8.19,8.19,0,0,0,3.74,6.48Z" style="opacity: 0.3; transform-origin: 169.94px 349.5px;" class="animable" id="elkgnxi8h4j3s"></path></g><path d="M166.57,366.92a8.25,8.25,0,0,0,3.74,6.48L199,389.91c7.75,4.47,20.32,4.48,28.08,0l37.62-21.74c7.75-4.47,7.75-11.73,0-16.21L236,335.45a8.28,8.28,0,0,1-3.74-6.49V292.73l-65.68,38Z" style="fill: #68B7C8; transform-origin: 218.541px 342.998px;" id="el7wcb2y3s06n" class="animable"></path><g id="el2pgsov34clv"><path d="M166.57,366.92a8.25,8.25,0,0,0,3.74,6.48L199,389.91c7.75,4.47,20.32,4.48,28.08,0l37.62-21.74c7.75-4.47,7.75-11.73,0-16.21L236,335.45a8.28,8.28,0,0,1-3.74-6.49V292.73l-65.68,38Z" style="opacity: 0.3; transform-origin: 218.541px 342.998px;" class="animable" id="elvbpsd3ok1p"></path></g><g id="elv4x7octxzp"><path d="M243.62,339.85h0l-7.62-4.4a8.28,8.28,0,0,1-3.74-6.49V292.73l-65.68,38v36.23a8.25,8.25,0,0,0,3.74,6.48l7.5,4.33Z" style="opacity: 0.5; transform-origin: 205.1px 335.25px;" class="animable" id="elqdyye2lafr"></path></g><path d="M270.48,360.06v5.23c0,2.94-2,5.86-5.82,8.11l-37.61,21.73a28.17,28.17,0,0,1-13.4,3.33v-5.21a28.17,28.17,0,0,0,13.4-3.33l37.61-21.75C268.53,365.94,270.48,363,270.48,360.06Z" style="fill: #68B7C8; transform-origin: 242.065px 379.26px;" id="el7ab1f3o64jq" class="animable"></path><g id="elt5ic4gwo32"><path d="M270.48,360.06v5.23c0,2.94-2,5.86-5.82,8.11l-37.61,21.73a28.17,28.17,0,0,1-13.4,3.33v-5.21a28.17,28.17,0,0,0,13.4-3.33l37.61-21.75C268.53,365.94,270.48,363,270.48,360.06Z" style="opacity: 0.5; transform-origin: 242.065px 379.26px;" class="animable" id="eltzb16v4jh7p"></path></g><path d="M61.1,412a10,10,0,0,0,9.07-.17l254-146.66a10.34,10.34,0,0,0,4.67-8.1V25.72a10,10,0,0,0-4.39-7.94,10,10,0,0,0-9.06.17L61.4,164.61a10.32,10.32,0,0,0-4.68,8.1V404A10,10,0,0,0,61.1,412Z" style="fill: #68B7C8; transform-origin: 192.78px 214.891px;" id="elbzpodorkpwa" class="animable"></path><path d="M70.17,411.78l254-146.66a10.35,10.35,0,0,0,4.68-8.11V25.71c0-3-2.1-4.19-4.68-2.7l-254,146.66a10.32,10.32,0,0,0-4.68,8.1v231.3C65.49,412.06,67.59,413.27,70.17,411.78Z" style="fill: #68B7C8; transform-origin: 197.17px 217.393px;" id="el83lecy2e058" class="animable"></path><g id="el24hzhzhb0z4"><path d="M70.17,411.78l254-146.66a10.35,10.35,0,0,0,4.68-8.11V25.71c0-3-2.1-4.19-4.68-2.7l-254,146.66a10.32,10.32,0,0,0-4.68,8.1v231.3C65.49,412.06,67.59,413.27,70.17,411.78Z" style="opacity: 0.5; transform-origin: 197.17px 217.393px;" class="animable" id="eluc3u3vrqgn"></path></g><path d="M69.48,417.12a10.09,10.09,0,0,1-8.38-.18A10,10,0,0,1,56.71,409V390.28l8.78,5.08v18.71C65.49,416.79,67.22,418,69.48,417.12Z" style="fill: #68B7C8; transform-origin: 63.095px 404.112px;" id="eld9yx571g67l" class="animable"></path><g id="el784gpgm64p"><path d="M69.48,417.12a10.09,10.09,0,0,1-8.38-.18A10,10,0,0,1,56.71,409V390.28l8.78,5.08v18.71C65.49,416.79,67.22,418,69.48,417.12Z" style="opacity: 0.5; transform-origin: 63.095px 404.112px;" class="animable" id="eljtzvs4qjzph"></path></g><path d="M65.49,395.36v18.7c0,3,2.1,4.2,4.68,2.7l254-146.65a10.35,10.35,0,0,0,4.68-8.11V243.26Z" style="fill: #68B7C8; transform-origin: 197.17px 330.333px;" id="elhzcuvi2o8x9" class="animable"></path><g id="elpzn58vvezyi"><path d="M65.49,395.32v18.74c0,3,2.1,4.2,4.68,2.7l254-146.65a10.35,10.35,0,0,0,4.68-8.11V243.26Z" style="opacity: 0.3; transform-origin: 197.17px 330.333px;" class="animable" id="elft3lwivge0a"></path></g><path d="M74.27,371.88V180.69a6.23,6.23,0,0,1,2.81-4.87L317.28,37.14c1.55-.89,2.81-.17,2.81,1.62V230a6.21,6.21,0,0,1-2.81,4.86L77.08,373.51C75.53,374.4,74.27,373.67,74.27,371.88Z" style="fill: #68B7C8; transform-origin: 197.18px 205.324px;" id="elhncrgm3j6n" class="animable"></path><path d="M74.27,371.88V180.69a6.23,6.23,0,0,1,2.81-4.87L317.28,37.14c1.55-.89,2.81-.17,2.81,1.62V230a6.21,6.21,0,0,1-2.81,4.86L77.08,373.51C75.53,374.4,74.27,373.67,74.27,371.88Z" style="fill: rgb(38, 50, 56); transform-origin: 197.18px 205.324px;" id="el0w1lzr14in2q" class="animable"></path><g id="elas8u5hxpgfs"><path d="M66.87,173.14a10,10,0,0,0-1.38,4.63V395.36l-8.78-5.08V172.71a9.69,9.69,0,0,1,1.37-4.62Z" style="opacity: 0.7; transform-origin: 61.79px 281.725px;" class="animable" id="el6sf2u16m0nf"></path></g><g id="elftpr7qhujfg"><path d="M328.83,24.94c-.33-2.41-2.28-3.28-4.64-1.93l-254,146.66a9.5,9.5,0,0,0-3.31,3.48l-8.78-5.07a9.66,9.66,0,0,1,3.31-3.48L315.42,18a10,10,0,0,1,9.07-.17A10.1,10.1,0,0,1,328.83,24.94Z" style="opacity: 0.3; transform-origin: 193.465px 94.9878px;" class="animable" id="elf3b5t068fbj"></path></g></g></g><g id="freepik--Window--inject-94" class="animable" style="transform-origin: 215.758px 213.994px;"><g id="freepik--window--inject-94" class="animable" style="transform-origin: 215.758px 213.994px;"><path d="M98.4,390.08a4,4,0,0,1-1.83.55,4.55,4.55,0,0,1-2.68-.47,5,5,0,0,1-2.18-4l0-178.6,4.39,2.53V388.73c0,1.06.53,1.67,1.29,1.67A2.37,2.37,0,0,0,98.4,390.08Z" style="fill: rgb(240, 240, 240); transform-origin: 95.055px 299.114px;" id="elodpihgzrvhj" class="animable"></path><path d="M339.83,248a5.14,5.14,0,0,1-2.33,4L98.4,390.08c-1.28.74-2.32.14-2.32-1.35V195l6.41-3.7c1.28-.74,3.37-12,4.66-12.79l55.6-32.1c1.29-.74,4.32,7.61,5.6,6.86l171.48-99V248Z" style="fill: rgb(250, 250, 250); transform-origin: 217.955px 222.333px;" id="el0hs5kdvfzep" class="animable"></path><path d="M338.75,56.1V248a4.1,4.1,0,0,1-1.79,3.1L97.86,389.15a1.13,1.13,0,0,1-.49.17c-.22,0-.22-.56-.22-.59V195.61l5.88-3.4c.93-.54,1.51-2.35,2.82-7a34.79,34.79,0,0,1,1.92-5.82l55.1-31.81a21.61,21.61,0,0,1,1.75,2.79c1.5,2.64,2.34,4,3.56,4a1.36,1.36,0,0,0,.71-.2L338.75,56.1M163.28,147.33h0M339.83,54.24l-171.48,99a.34.34,0,0,1-.17.05c-1.3,0-4-7-5.26-7a.33.33,0,0,0-.17,0l-55.6,32.1c-1.29.75-3.38,12-4.66,12.79L96.08,195V388.73c0,1.06.52,1.67,1.29,1.67a2,2,0,0,0,1-.32L337.5,252a5.14,5.14,0,0,0,2.33-4V54.24Z" style="fill: rgb(224, 224, 224); transform-origin: 217.955px 222.32px;" id="elzj6lhdt2x5p" class="animable"></path><path d="M93.89,202.15a5,5,0,0,1-2.19-4V180A5.15,5.15,0,0,1,94,176l239.1-138a4.36,4.36,0,0,1,6.69,3.87V60a5.12,5.12,0,0,1-2.33,4L98.4,202.07A5,5,0,0,1,93.89,202.15Z" style="fill: #68B7C8; transform-origin: 215.747px 119.985px;" id="eltqdr8qbar0o" class="animable"></path><g id="elvlkk6k08xas"><path d="M339.8,41.41c-.16-1.21-1.14-1.65-2.3-1L98.4,178.49a5.07,5.07,0,0,0-1.65,1.75l-4.37-2.53A4.86,4.86,0,0,1,94,176l239.1-138a4.34,4.34,0,0,1,6.67,3.49Z" style="fill: rgb(255, 255, 255); opacity: 0.4; transform-origin: 216.09px 108.78px;" class="animable" id="eluronfonrf4i"></path></g><g id="el4xflklwvh69"><path d="M96.75,180.24a4.72,4.72,0,0,0-.67,2.29v27.61l-4.39-2.53V180a2.62,2.62,0,0,1,0-.28,4.71,4.71,0,0,1,.09-.58,5.57,5.57,0,0,1,.58-1.44Z" style="opacity: 0.1; transform-origin: 94.2181px 193.92px;" class="animable" id="el7u695zck79o"></path></g><path d="M339.82,41.78V54.24l-171.48,99c-1.28.75-2.32.14-2.32-1.34v-4.72c0-1.48-1-2.09-2.34-1.34l-56.54,32.64a5.15,5.15,0,0,0-2.33,4v4.71a5.17,5.17,0,0,1-2.33,4L96.08,195V182.53a5.17,5.17,0,0,1,2.32-4l239.1-138C338.78,39.69,339.82,40.3,339.82,41.78Z" style="fill: #68B7C8; transform-origin: 217.95px 117.575px;" id="el6nwwh2eas88" class="animable"></path><path d="M328.9,49.59c1.62-.93,2.93-.17,2.93,1.7a6.49,6.49,0,0,1-2.93,5.08c-1.62.93-2.94.17-2.94-1.7A6.5,6.5,0,0,1,328.9,49.59Z" style="fill: rgb(255, 255, 255); transform-origin: 328.895px 52.98px;" id="elp3kpbvixjfc" class="animable"></path><path d="M318.34,55.68c1.62-.93,2.93-.18,2.93,1.69a6.47,6.47,0,0,1-2.93,5.08c-1.62.94-2.93.18-2.93-1.69A6.49,6.49,0,0,1,318.34,55.68Z" style="fill: rgb(255, 255, 255); transform-origin: 318.34px 59.0672px;" id="elwqrwqookcia" class="animable"></path><path d="M307.78,61.77c1.62-.94,2.93-.18,2.93,1.69a6.49,6.49,0,0,1-2.93,5.08c-1.62.93-2.93.18-2.93-1.69A6.47,6.47,0,0,1,307.78,61.77Z" style="fill: rgb(255, 255, 255); transform-origin: 307.78px 65.1528px;" id="eljujatqo4mz" class="animable"></path><path d="M339.83,54.24V69.39L96.08,210.14V195l4.79-2.77c1.28-.74,1.71-1.87,2.32-4l1.63-5.64c.51-2,1-3.29,2.33-4l55.6-32.1c1.29-.74,2.3-.82,3.28.8l2,3.62c.73,1.26,1.1,2,2.38,1.26Z" style="fill: rgb(230, 230, 230); transform-origin: 217.955px 132.19px;" id="el8ipw0cvob1j" class="animable"></path><polygon points="96.08 194.98 96.08 210.14 91.69 207.61 91.69 192.47 96.08 194.98" style="fill: rgb(224, 224, 224); transform-origin: 93.885px 201.305px;" id="elbk9z9firrba" class="animable"></polygon><path d="M106.77,196.08l-3.66,2.11,1.39-2.68a.68.68,0,0,0,0-.66c-.11-.13-.29,0-.42.2l-2,3.81v0s0,.09-.05.14,0,0,0,0a1.23,1.23,0,0,0,0,.19.72.72,0,0,0,0,.17s0,0,0,0a.56.56,0,0,0,.05.08h0l2,1.52a.16.16,0,0,0,.2,0,.55.55,0,0,0,.22-.28c.11-.25.09-.53,0-.62l-1.39-1.08,3.66-2.11a.77.77,0,0,0,.29-.62C107.06,196.11,106.93,196,106.77,196.08Z" style="fill: rgb(69, 90, 100); transform-origin: 104.534px 197.896px;" id="el7poqde90evl" class="animable"></path><path d="M109.82,194.31l3.66-2.11-1.4-1.07a.59.59,0,0,1,0-.63c.1-.25.29-.37.41-.28l2,1.53h0a.18.18,0,0,1,.06.08s0,0,0,0a.47.47,0,0,1,0,.17.69.69,0,0,1,0,.2s0,0,0,0l-.06.15h0l-2,3.82a.47.47,0,0,1-.19.22.16.16,0,0,1-.22,0,.65.65,0,0,1,0-.65l1.4-2.68-3.66,2.11c-.16.09-.29,0-.29-.28A.79.79,0,0,1,109.82,194.31Z" style="fill: rgb(69, 90, 100); transform-origin: 112.044px 193.312px;" id="el4rkf1dwjeb" class="animable"></path><path d="M121.82,183.78c0-.22-.21-.2-.31,0l-.5,1.23c-.86-.09-1.89.74-2.59,2.22-.91,1.92-.91,4.19,0,5.06a1.29,1.29,0,0,0,1.64.1,4.56,4.56,0,0,0,1.65-2,.65.65,0,0,0,0-.64c-.12-.11-.3,0-.42.24-.68,1.43-1.78,2.07-2.45,1.42s-.68-2.35,0-3.78c.48-1,1.17-1.62,1.77-1.66l-.37.93c-.1.24,0,.46.14.36l1.49-1a.43.43,0,0,0,.17-.4Z" style="fill: rgb(69, 90, 100); transform-origin: 119.89px 188.13px;" id="el5bt6exb6xxt" class="animable"></path><path d="M161.14,153.31l1.34-2.82a.9.9,0,0,0,0-.88c-.16-.15-.42,0-.57.33l-1.34,2.82-1.33-1.28c-.16-.15-.41,0-.57.33a.85.85,0,0,0,0,.88L160,154l-1.33,2.82a.85.85,0,0,0,0,.88.21.21,0,0,0,.28,0,.75.75,0,0,0,.29-.35l1.33-2.82,1.34,1.28a.21.21,0,0,0,.28,0,.75.75,0,0,0,.29-.35.9.9,0,0,0,0-.88Z" style="fill: rgb(69, 90, 100); transform-origin: 160.571px 153.653px;" id="elrw923f26al" class="animable"></path><path d="M126.68,187.25v-4.72a5.14,5.14,0,0,1,2.33-4L324.38,65.74c1.29-.75,2.33-.14,2.33,1.34V71.8a5.14,5.14,0,0,1-2.33,4L129,188.59C127.72,189.34,126.68,188.73,126.68,187.25Z" style="fill: rgb(250, 250, 250); transform-origin: 226.695px 127.165px;" id="el5c9o76j3zgv" class="animable"></path><path d="M321.21,76.2a.65.65,0,0,1-.21,0,.63.63,0,0,1-.35-.71l.23-1.91-.9-.65a.63.63,0,0,1-.24-.52,1,1,0,0,1,.38-.81l1.37-1.06a.32.32,0,0,0,.06-.11l.61-2a.85.85,0,0,1,.69-.65.52.52,0,0,1,.54.32h0l.51,1.09,1.16-.44a.52.52,0,0,1,.61.14.83.83,0,0,1,0,.94l-1,1.86a.45.45,0,0,0,0,.11l.24,1.68a1,1,0,0,1-.3.84.61.61,0,0,1-.54.21L323,74.36l-1.21,1.54A.69.69,0,0,1,321.21,76.2Zm-.66-3.9.9.65a.68.68,0,0,1,.24.64l-.16,1.28.81-1a.71.71,0,0,1,.62-.3l1.12.14a.38.38,0,0,0,0-.13l-.24-1.68a1.08,1.08,0,0,1,.12-.6l.87-1.63L324,70a.55.55,0,0,1-.71-.28l-.4-.86-.55,1.79a1,1,0,0,1-.34.51l-1.37,1A.29.29,0,0,0,320.55,72.3Zm.42,1.3Zm1.69-5.2Z" style="fill: rgb(224, 224, 224); transform-origin: 322.778px 71.9926px;" id="elx4gmgm8wtn" class="animable"></path><path d="M329.46,65.16a.8.8,0,0,1-.41-1.5l6.56-3.79a.81.81,0,1,1,.81,1.4l-6.56,3.78A.73.73,0,0,1,329.46,65.16Z" style="fill: rgb(69, 90, 100); transform-origin: 332.751px 62.4488px;" id="elofh1tv3z8vh" class="animable"></path><path d="M329.46,69a.8.8,0,0,1-.7-.4.82.82,0,0,1,.29-1.11l6.56-3.78a.81.81,0,0,1,1.11.29.8.8,0,0,1-.3,1.1l-6.56,3.79A.73.73,0,0,1,329.46,69Z" style="fill: rgb(69, 90, 100); transform-origin: 332.74px 66.2992px;" id="elkziipzfw3nk" class="animable"></path><path d="M329.46,72.74a.81.81,0,0,1-.41-1.51l6.56-3.79a.82.82,0,0,1,1.11.3.8.8,0,0,1-.3,1.1l-6.56,3.79A.83.83,0,0,1,329.46,72.74Z" style="fill: rgb(69, 90, 100); transform-origin: 332.738px 70.0372px;" id="el1m5dfsz9om8" class="animable"></path><g id="freepik--Search--inject-94" class="animable" style="transform-origin: 215.773px 152.98px;"><path d="M103.27,214.38a.8.8,0,0,1-.41-1.5l6.56-3.79a.81.81,0,0,1,.81,1.4l-6.56,3.78A.76.76,0,0,1,103.27,214.38Z" style="fill: rgb(69, 90, 100); transform-origin: 106.521px 211.692px;" id="eltih1b541etb" class="animable"></path><path d="M103.27,218.17a.8.8,0,0,1-.7-.4.81.81,0,0,1,.29-1.11l6.56-3.78a.8.8,0,0,1,1.1.29.81.81,0,0,1-.29,1.11l-6.56,3.78A.76.76,0,0,1,103.27,218.17Z" style="fill: rgb(69, 90, 100); transform-origin: 106.545px 215.47px;" id="ell2f99s3rj4m" class="animable"></path><path d="M103.27,222a.81.81,0,0,1-.41-1.51l6.56-3.78a.79.79,0,0,1,1.1.29.8.8,0,0,1-.29,1.1l-6.56,3.79A.86.86,0,0,1,103.27,222Z" style="fill: rgb(69, 90, 100); transform-origin: 106.544px 219.298px;" id="el3o0q1u2f02k" class="animable"></path><path d="M161.45,181v5.81c0,1.19.84,1.67,1.87,1.08l77.93-45.06V132.69l-77.92,45.06A4.14,4.14,0,0,0,161.45,181Z" style="fill: rgb(230, 230, 230); transform-origin: 201.35px 160.416px;" id="el9wtibx0k1h" class="animable"></path><path d="M251.07,127c1-.6,1.87-.11,1.87,1.08v5.81a4.15,4.15,0,0,1-1.87,3.24l-9.82,5.67V132.69Z" style="fill: #68B7C8; transform-origin: 247.095px 134.772px;" id="el3qjcwvd5k5o" class="animable"></path><path d="M250.34,135l-1.09-.35a6.11,6.11,0,0,0,.17-1.41,2.57,2.57,0,0,0-1-2.34,1.55,1.55,0,0,0-1.59.08,5.6,5.6,0,0,0-2.19,4.56,2.57,2.57,0,0,0,1,2.34,1.39,1.39,0,0,0,.69.18,1.75,1.75,0,0,0,.9-.26,4.58,4.58,0,0,0,1.77-2.37l1.1.34a.25.25,0,0,0,.12,0,.4.4,0,0,0,.12-.79Zm-3.51,2.1a.77.77,0,0,1-.79.07,1.9,1.9,0,0,1-.59-1.63,4.92,4.92,0,0,1,1.78-3.86,1.05,1.05,0,0,1,.5-.15.51.51,0,0,1,.29.08,1.9,1.9,0,0,1,.59,1.63A4.92,4.92,0,0,1,246.83,137.09Z" style="fill: rgb(250, 250, 250); transform-origin: 247.642px 134.389px;" id="el4n5o1c56643" class="animable"></path><path d="M129.06,197.53,117.81,204a4.1,4.1,0,0,0-1.87,3.22v5.79c0,1.19.84,1.67,1.87,1.08l11.25-6.51a4.11,4.11,0,0,0,1.86-3.23V198.6C130.92,197.42,130.09,196.93,129.06,197.53Z" style="fill: #68B7C8; transform-origin: 123.43px 205.808px;" id="elknziu77sa3h" class="animable"></path><path d="M324.71,84.56a9.7,9.7,0,0,0-4.38,7.59c0,2.8,2,3.93,4.38,2.54a9.71,9.71,0,0,0,4.39-7.6C329.1,84.29,327.13,83.16,324.71,84.56Z" style="fill: #68B7C8; transform-origin: 324.715px 89.6218px;" id="el0o5ig565u56n" class="animable"></path><path d="M324.2,89a.76.76,0,0,1-.39-.1,1,1,0,0,1-.42-.88,2.52,2.52,0,0,1,1.15-2h0a.87.87,0,0,1,1.4.81,2.54,2.54,0,0,1-1.16,2A1.23,1.23,0,0,1,324.2,89Z" style="fill: rgb(255, 255, 255); transform-origin: 324.669px 87.4164px;" id="elp7j5lepuvhs" class="animable"></path><path d="M326.44,89.31a1.5,1.5,0,0,0-1.54.12l-.64.37a4.32,4.32,0,0,0-2,3.41v.46a2.47,2.47,0,0,0,2.42-.26,7,7,0,0,0,2.42-2.54v-.11A1.59,1.59,0,0,0,326.44,89.31Z" style="fill: rgb(255, 255, 255); transform-origin: 324.684px 91.5125px;" id="elergxn1eurrn" class="animable"></path><path d="M309.2,98.12V96.57c0-1.76-1.07-2.57-2.39-1.81h0a5.74,5.74,0,0,0-2.4,4.58v1.39a5.52,5.52,0,0,1-.81,2.7h0a1.48,1.48,0,0,0-.2.7h0c0,.45.27.65.6.46l5.61-3.23a1.47,1.47,0,0,0,.6-1.16h0a.59.59,0,0,0-.18-.47h0A1.63,1.63,0,0,1,309.2,98.12Z" style="fill: #68B7C8; transform-origin: 306.806px 99.5681px;" id="elzglyhkcm3w" class="animable"></path><path d="M308,102.8a2.77,2.77,0,0,1-1.15,2.2c-.64.36-1.16,0-1.16-.87Z" style="fill: #68B7C8; transform-origin: 306.845px 103.969px;" id="eluwp8btf6o3b" class="animable"></path><path d="M288.52,105.48a2.57,2.57,0,0,1,1-.34,1.32,1.32,0,0,1,.8.16,1.34,1.34,0,0,1,.53.61A2.54,2.54,0,0,1,291,107a4.21,4.21,0,0,1-.11,1,6.17,6.17,0,0,1-.28.86,7.85,7.85,0,0,1-.37.77l-.4.72c-.12.23-.24.47-.34.7a3.19,3.19,0,0,0-.21.69,1.14,1.14,0,0,1-.08.33.47.47,0,0,1-.16.2l-1.13.65c-.07,0-.13,0-.17,0a.3.3,0,0,1-.08-.23,3.13,3.13,0,0,1,.13-.91,6.61,6.61,0,0,1,.3-.85c.13-.27.26-.54.41-.79s.27-.5.4-.72.22-.45.31-.66a1.68,1.68,0,0,0,.12-.59c0-.28-.07-.46-.2-.53s-.35,0-.63.12a1.57,1.57,0,0,0-.59.54,2.9,2.9,0,0,0-.27.57l-.14.5a.54.54,0,0,1-.23.33l-1.13.65a.12.12,0,0,1-.14,0,.27.27,0,0,1-.06-.2,4.91,4.91,0,0,1,.18-1.15,7.62,7.62,0,0,1,.5-1.29,6.26,6.26,0,0,1,.8-1.22A4.14,4.14,0,0,1,288.52,105.48Zm.8,9.24a.73.73,0,0,1-.07.31.48.48,0,0,1-.18.21l-1.16.67a.12.12,0,0,1-.17,0,.3.3,0,0,1-.08-.23v-1.43a.71.71,0,0,1,.08-.31.44.44,0,0,1,.17-.22l1.16-.67a.14.14,0,0,1,.18,0,.28.28,0,0,1,.07.22Z" style="fill: #68B7C8; transform-origin: 288.478px 110.538px;" id="elrcpvyyjhpoe" class="animable"></path></g><path d="M269.28,143.12V163c0,1.49,1,2.09,2.33,1.35l25.94-15a5.15,5.15,0,0,0,2.33-4l0-19.85c0-1.48-1-2.09-2.33-1.34l-26,15A5.15,5.15,0,0,0,269.28,143.12Z" style="fill: #68B7C8; transform-origin: 284.58px 144.253px;" id="elr065mb4ahme" class="animable"></path><g id="el7yyni8saa6x"><path d="M269.28,143.12V163c0,1.49,1,2.09,2.33,1.35l25.94-15a5.15,5.15,0,0,0,2.33-4l0-19.85c0-1.48-1-2.09-2.33-1.34l-26,15A5.15,5.15,0,0,0,269.28,143.12Z" style="fill: rgb(255, 255, 255); opacity: 0.5; transform-origin: 284.58px 144.253px;" class="animable" id="el7xz3i9gsd84"></path></g><path d="M280.37,151.46v-8.69a1.71,1.71,0,0,1,1.62-1.68l7.93-.35c.89,0,1.12.47.53,1.13l-9,10C280.86,152.53,280.37,152.35,280.37,151.46Z" style="fill: rgb(250, 250, 250); transform-origin: 285.573px 146.504px;" id="elcb0kpeswb05" class="animable"></path><path d="M307.34,119.9l21-12.15c.58-.33,1.05-.09,1.05.53a2.23,2.23,0,0,1-1.05,1.73l-21,12.15c-.58.33-1,.09-1-.53A2.22,2.22,0,0,1,307.34,119.9Z" style="fill: rgb(69, 90, 100); transform-origin: 317.865px 114.955px;" id="elyza1n4hly6" class="animable"></path><path d="M307.34,124.41l21-12.14c.58-.33,1.05-.1,1.05.53a2.23,2.23,0,0,1-1.05,1.73l-21,12.14c-.58.34-1,.1-1-.52A2.24,2.24,0,0,1,307.34,124.41Z" style="fill: rgb(69, 90, 100); transform-origin: 317.865px 119.472px;" id="elvowahodhbih" class="animable"></path><path d="M307.34,128.8l21-12.15c.58-.33,1.05-.09,1.05.53a2.23,2.23,0,0,1-1.05,1.73l-21,12.14c-.58.34-1,.1-1-.52A2.21,2.21,0,0,1,307.34,128.8Z" style="fill: rgb(69, 90, 100); transform-origin: 317.865px 123.853px;" id="el7hohkrx1pyl" class="animable"></path><path d="M307,135.07l14.44-8.34c.39-.23.71-.06.71.36a1.55,1.55,0,0,1-.71,1.19L307,136.62c-.39.22-.71.06-.71-.37A1.53,1.53,0,0,1,307,135.07Z" style="fill: rgb(224, 224, 224); transform-origin: 314.22px 131.673px;" id="elx4wdjlu984j" class="animable"></path><path d="M307,138.17l14.44-8.34c.39-.23.71-.06.71.36a1.55,1.55,0,0,1-.71,1.19L307,139.72c-.39.22-.71.06-.71-.37A1.53,1.53,0,0,1,307,138.17Z" style="fill: rgb(224, 224, 224); transform-origin: 314.22px 134.773px;" id="el7ej8zfqk7zb" class="animable"></path><path d="M307,141.17l14.44-8.33c.39-.23.71-.07.71.36a1.55,1.55,0,0,1-.71,1.19L307,142.72c-.39.23-.71.07-.71-.36A1.55,1.55,0,0,1,307,141.17Z" style="fill: rgb(224, 224, 224); transform-origin: 314.22px 137.78px;" id="elj6xyn1cy08g" class="animable"></path><path d="M269.28,178.47v19.86c0,1.49,1,2.09,2.33,1.35l25.94-15a5.15,5.15,0,0,0,2.33-4l0-19.85c0-1.49-1-2.09-2.33-1.35l-26,15A5.14,5.14,0,0,0,269.28,178.47Z" style="fill: #68B7C8; transform-origin: 284.58px 179.58px;" id="elsgjlwcur5dl" class="animable"></path><g id="ely1bgtjb3kye"><path d="M269.28,178.47v19.86c0,1.49,1,2.09,2.33,1.35l25.94-15a5.15,5.15,0,0,0,2.33-4l0-19.85c0-1.49-1-2.09-2.33-1.35l-26,15A5.14,5.14,0,0,0,269.28,178.47Z" style="fill: rgb(255, 255, 255); opacity: 0.5; transform-origin: 284.58px 179.58px;" class="animable" id="el6h412y21oa"></path></g><path d="M280.37,186.8v-8.68a1.7,1.7,0,0,1,1.62-1.68l7.93-.35c.89,0,1.12.47.53,1.13l-9,10C280.86,187.88,280.37,187.7,280.37,186.8Z" style="fill: rgb(250, 250, 250); transform-origin: 285.573px 181.853px;" id="el7yqvy2vvzlg" class="animable"></path><path d="M307.34,155.24l21-12.14c.58-.33,1.05-.1,1.05.53a2.23,2.23,0,0,1-1.05,1.73l-21,12.14c-.58.34-1,.1-1-.52A2.24,2.24,0,0,1,307.34,155.24Z" style="fill: rgb(69, 90, 100); transform-origin: 317.865px 150.302px;" id="el6x7lvj2hcr4" class="animable"></path><path d="M307.34,159.76l21-12.14c.58-.33,1.05-.1,1.05.53a2.25,2.25,0,0,1-1.05,1.73l-21,12.14c-.58.33-1,.1-1-.53A2.22,2.22,0,0,1,307.34,159.76Z" style="fill: rgb(69, 90, 100); transform-origin: 317.865px 154.82px;" id="elgbi4gv9x47p" class="animable"></path><path d="M307.34,164.14l21-12.14c.58-.33,1.05-.1,1.05.53a2.23,2.23,0,0,1-1.05,1.73l-21,12.14c-.58.33-1,.1-1-.53A2.24,2.24,0,0,1,307.34,164.14Z" style="fill: rgb(69, 90, 100); transform-origin: 317.865px 159.2px;" id="elr2mfje640jk" class="animable"></path><path d="M307,170.41l14.44-8.33c.39-.23.71-.07.71.36a1.55,1.55,0,0,1-.71,1.19L307,172c-.39.23-.71.07-.71-.36A1.55,1.55,0,0,1,307,170.41Z" style="fill: rgb(224, 224, 224); transform-origin: 314.22px 167.04px;" id="el24j1m03uyxh" class="animable"></path><path d="M307,173.51l14.44-8.33c.39-.23.71-.07.71.36a1.55,1.55,0,0,1-.71,1.19L307,175.06c-.39.23-.71.07-.71-.36A1.55,1.55,0,0,1,307,173.51Z" style="fill: rgb(224, 224, 224); transform-origin: 314.22px 170.12px;" id="eluxgnzvalk1q" class="animable"></path><path d="M307,176.52l14.44-8.33c.39-.23.71-.07.71.36a1.55,1.55,0,0,1-.71,1.19L307,178.07c-.39.23-.71.07-.71-.36A1.55,1.55,0,0,1,307,176.52Z" style="fill: rgb(224, 224, 224); transform-origin: 314.22px 173.13px;" id="elrcvnfyn418" class="animable"></path><path d="M269.28,213.79v19.86c0,1.49,1,2.09,2.33,1.35l25.94-15a5.15,5.15,0,0,0,2.33-4l0-19.85c0-1.48-1-2.09-2.33-1.34l-26,15A5.15,5.15,0,0,0,269.28,213.79Z" style="fill: #68B7C8; transform-origin: 284.58px 214.903px;" id="eldftdv2wyzrh" class="animable"></path><g id="el9tiipm2hual"><path d="M269.28,213.79v19.86c0,1.49,1,2.09,2.33,1.35l25.94-15a5.15,5.15,0,0,0,2.33-4l0-19.85c0-1.48-1-2.09-2.33-1.34l-26,15A5.15,5.15,0,0,0,269.28,213.79Z" style="fill: rgb(255, 255, 255); opacity: 0.5; transform-origin: 284.58px 214.903px;" class="animable" id="elxjddfy2o27n"></path></g><path d="M280.37,222.13v-8.69a1.71,1.71,0,0,1,1.62-1.68l7.93-.35c.89,0,1.12.47.53,1.13l-9,10C280.86,223.2,280.37,223,280.37,222.13Z" style="fill: rgb(250, 250, 250); transform-origin: 285.573px 217.171px;" id="elle9ct95at7c" class="animable"></path><path d="M307.34,190.57l21-12.15c.58-.33,1.05-.09,1.05.53a2.23,2.23,0,0,1-1.05,1.73l-21,12.15c-.58.33-1,.09-1-.53A2.21,2.21,0,0,1,307.34,190.57Z" style="fill: rgb(69, 90, 100); transform-origin: 317.865px 185.625px;" id="el7l5v9rr04aq" class="animable"></path><path d="M307.34,195.08l21-12.14c.58-.33,1.05-.1,1.05.53a2.23,2.23,0,0,1-1.05,1.73l-21,12.14c-.58.34-1,.1-1-.52A2.24,2.24,0,0,1,307.34,195.08Z" style="fill: rgb(69, 90, 100); transform-origin: 317.865px 190.142px;" id="elkeuoegupd5" class="animable"></path><path d="M307.34,199.47l21-12.15c.58-.33,1.05-.09,1.05.53a2.23,2.23,0,0,1-1.05,1.73l-21,12.14c-.58.34-1,.1-1-.52A2.21,2.21,0,0,1,307.34,199.47Z" style="fill: rgb(69, 90, 100); transform-origin: 317.865px 194.523px;" id="eltly00htdptg" class="animable"></path><path d="M307,205.74l14.44-8.34c.39-.23.71-.06.71.36a1.55,1.55,0,0,1-.71,1.19L307,207.29c-.39.22-.71.06-.71-.37A1.53,1.53,0,0,1,307,205.74Z" style="fill: rgb(224, 224, 224); transform-origin: 314.22px 202.343px;" id="elv0pq22vessk" class="animable"></path><path d="M307,208.84l14.44-8.34c.39-.23.71-.06.71.36a1.55,1.55,0,0,1-.71,1.19L307,210.39c-.39.22-.71.06-.71-.37A1.53,1.53,0,0,1,307,208.84Z" style="fill: rgb(224, 224, 224); transform-origin: 314.22px 205.443px;" id="el9ftmzmn9png" class="animable"></path><path d="M307,211.84l14.44-8.33c.39-.23.71-.07.71.36a1.55,1.55,0,0,1-.71,1.19L307,213.39c-.39.23-.71.07-.71-.36A1.55,1.55,0,0,1,307,211.84Z" style="fill: rgb(224, 224, 224); transform-origin: 314.22px 208.45px;" id="el44whr9ka8nf" class="animable"></path><path d="M269.28,249.14V269c0,1.48,1,2.08,2.33,1.34l25.94-15a5.14,5.14,0,0,0,2.33-4l0-19.85c0-1.48-1-2.08-2.33-1.34l-26,15A5.14,5.14,0,0,0,269.28,249.14Z" style="fill: #68B7C8; transform-origin: 284.58px 250.245px;" id="el32svtlcllol" class="animable"></path><g id="eloyvmv01ccdo"><path d="M269.28,249.14V269c0,1.48,1,2.08,2.33,1.34l25.94-15a5.14,5.14,0,0,0,2.33-4l0-19.85c0-1.48-1-2.08-2.33-1.34l-26,15A5.14,5.14,0,0,0,269.28,249.14Z" style="fill: rgb(255, 255, 255); opacity: 0.5; transform-origin: 284.58px 250.245px;" class="animable" id="el75sy11lefa2"></path></g><path d="M280.37,257.48V248.8a1.71,1.71,0,0,1,1.62-1.69l7.93-.34c.89,0,1.12.46.53,1.13l-9,10C280.86,258.56,280.37,258.37,280.37,257.48Z" style="fill: rgb(250, 250, 250); transform-origin: 285.573px 252.532px;" id="elhnfv7msl9se" class="animable"></path><path d="M307.34,225.92l21-12.14c.58-.34,1.05-.1,1.05.52a2.22,2.22,0,0,1-1.05,1.73l-21,12.15c-.58.33-1,.1-1-.53A2.22,2.22,0,0,1,307.34,225.92Z" style="fill: rgb(69, 90, 100); transform-origin: 317.865px 220.978px;" id="elu08b82bnc3n" class="animable"></path><path d="M307.34,230.44l21-12.15c.58-.33,1.05-.09,1.05.53a2.23,2.23,0,0,1-1.05,1.73l-21,12.15c-.58.33-1,.09-1-.53A2.22,2.22,0,0,1,307.34,230.44Z" style="fill: rgb(69, 90, 100); transform-origin: 317.865px 225.495px;" id="elwzxtp3116ul" class="animable"></path><path d="M307.34,234.82l21-12.15c.58-.33,1.05-.09,1.05.53a2.22,2.22,0,0,1-1.05,1.73l-21,12.15c-.58.33-1,.09-1-.53A2.22,2.22,0,0,1,307.34,234.82Z" style="fill: rgb(69, 90, 100); transform-origin: 317.865px 229.875px;" id="elduqs3mvptd7" class="animable"></path><path d="M307,241.09l14.44-8.34c.39-.22.71-.06.71.37a1.53,1.53,0,0,1-.71,1.18L307,242.64c-.39.23-.71.06-.71-.36A1.55,1.55,0,0,1,307,241.09Z" style="fill: rgb(224, 224, 224); transform-origin: 314.22px 237.697px;" id="elv21t5h9yi8f" class="animable"></path><path d="M307,244.19l14.44-8.34c.39-.22.71-.06.71.37a1.53,1.53,0,0,1-.71,1.18L307,245.74c-.39.23-.71.06-.71-.36A1.55,1.55,0,0,1,307,244.19Z" style="fill: rgb(224, 224, 224); transform-origin: 314.22px 240.797px;" id="elj9ex85eqwsn" class="animable"></path><path d="M307,247.19l14.44-8.33c.39-.23.71-.06.71.36a1.55,1.55,0,0,1-.71,1.19L307,248.74c-.39.23-.71.07-.71-.36A1.55,1.55,0,0,1,307,247.19Z" style="fill: rgb(224, 224, 224); transform-origin: 314.22px 243.801px;" id="elcif8emmomgi" class="animable"></path><path d="M107.79,344.74l78.42-45.28c1.28-.74,2.33-.21,2.32,1.18a5,5,0,0,1-2.33,3.87l-78.41,45.28c-1.28.74-2.33.21-2.33-1.18A5,5,0,0,1,107.79,344.74Z" style="fill: rgb(69, 90, 100); transform-origin: 146.995px 324.625px;" id="el8ojl1g33dpc" class="animable"></path><path d="M106.77,353.88l44-25.37c.73-.42,1.31-.13,1.31.66a2.82,2.82,0,0,1-1.31,2.17l-43.95,25.37c-.72.42-1.31.12-1.31-.66A2.82,2.82,0,0,1,106.77,353.88Z" style="fill: rgb(224, 224, 224); transform-origin: 128.795px 342.609px;" id="elldcnkm3be7o" class="animable"></path><path d="M123.89,352.87l56.17-32.42c1.28-.75,2.33-.22,2.33,1.18a5,5,0,0,1-2.33,3.87l-56.17,32.42c-1.29.74-2.33.22-2.33-1.18A5,5,0,0,1,123.89,352.87Z" style="fill: rgb(69, 90, 100); transform-origin: 151.975px 339.183px;" id="el9zxjb2om4a5" class="animable"></path><path d="M122.86,362l21.71-12.53c.73-.42,1.31-.12,1.31.66a2.79,2.79,0,0,1-1.31,2.17l-21.71,12.53c-.72.41-1.3.12-1.3-.66A2.79,2.79,0,0,1,122.86,362Z" style="fill: rgb(224, 224, 224); transform-origin: 133.72px 357.148px;" id="elpz94kgcg34" class="animable"></path><path d="M111.53,358.63a13.53,13.53,0,0,0-6.12,10.6c0,3.9,2.74,5.49,6.12,3.53a13.51,13.51,0,0,0,6.12-10.6C117.65,358.26,114.91,356.68,111.53,358.63Z" style="fill: #68B7C8; transform-origin: 111.53px 365.697px;" id="eljzexoepbg1" class="animable"></path><path d="M110.82,364.85a1,1,0,0,1-.55-.14,1.32,1.32,0,0,1-.59-1.22,3.51,3.51,0,0,1,1.62-2.79h0a1.31,1.31,0,0,1,1.35-.1,1.32,1.32,0,0,1,.59,1.22,3.52,3.52,0,0,1-1.61,2.79A1.66,1.66,0,0,1,110.82,364.85Z" style="fill: rgb(255, 255, 255); transform-origin: 111.46px 362.655px;" id="elggly3501ms" class="animable"></path><path d="M114,365.26a2.11,2.11,0,0,0-2.16.17l-.88.51a6,6,0,0,0-2.76,4.77v.63a3.43,3.43,0,0,0,3.38-.36,9.77,9.77,0,0,0,3.38-3.54v-.15A2.23,2.23,0,0,0,114,365.26Z" style="fill: rgb(255, 255, 255); transform-origin: 111.584px 368.334px;" id="elxbgkpchudsa" class="animable"></path><path d="M217.1,301.82l25.94-15c1.29-.74,2.34-.14,2.34,1.35v4.71a5.15,5.15,0,0,1-2.34,4l-25.94,15c-1.29.74-2.33.14-2.33-1.35v-4.71A5.15,5.15,0,0,1,217.1,301.82Z" style="fill: #68B7C8; transform-origin: 230.075px 299.35px;" id="elvwwf2rcliy" class="animable"></path><g id="elal9fcsmlg3s"><path d="M217.1,301.82l25.94-15c1.29-.74,2.34-.14,2.34,1.35v4.71a5.15,5.15,0,0,1-2.34,4l-25.94,15c-1.29.74-2.33.14-2.33-1.35v-4.71A5.15,5.15,0,0,1,217.1,301.82Z" style="fill: rgb(255, 255, 255); opacity: 0.7; transform-origin: 230.075px 299.35px;" class="animable" id="elay4im8sxlv"></path></g><path d="M254.86,284.78v-1.55c0-1.76-1.07-2.58-2.4-1.81h0a5.75,5.75,0,0,0-2.4,4.58v1.39a5.5,5.5,0,0,1-.8,2.7h0a1.54,1.54,0,0,0-.19.71h0c0,.45.27.65.6.46l5.6-3.24a1.43,1.43,0,0,0,.61-1.15h0a.57.57,0,0,0-.18-.47h0A1.66,1.66,0,0,1,254.86,284.78Z" style="fill: rgb(69, 90, 100); transform-origin: 252.476px 286.231px;" id="elvir1csia74c" class="animable"></path><path d="M253.61,289.45a2.73,2.73,0,0,1-1.15,2.2c-.63.37-1.15,0-1.15-.87Z" style="fill: rgb(69, 90, 100); transform-origin: 252.46px 290.621px;" id="elzejppe9jhkl" class="animable"></path><path d="M207.81,292.37a1.45,1.45,0,0,1-.52.92,1.12,1.12,0,0,1,.08.44,1.4,1.4,0,0,1-.68,1.06l-3.05,1.77v-4h0c0-.07.84-1.91.91-2.19a8.4,8.4,0,0,0,0-1.42.72.72,0,0,1,.81-.36h0a.36.36,0,0,1,.18.2,2.7,2.7,0,0,1,.19.63,3.51,3.51,0,0,1-.07,1.14l1.85-1.07a.38.38,0,0,1,.36-.05.46.46,0,0,1,.19.4,1.39,1.39,0,0,1-.3.8s.37-.11.37.38a1.3,1.3,0,0,1-.45.91S207.81,292,207.81,292.37Z" style="fill: #68B7C8; transform-origin: 205.885px 292.564px;" id="elqbhmwcgqz9" class="animable"></path><path d="M203.2,296.3v.85a.39.39,0,0,1-.17.3l-1,.57h0a.33.33,0,0,1-.17,0v-4.58l.8-.46h0l.48-.28a.41.41,0,0,1,0,.18Z" style="fill: #68B7C8; transform-origin: 202.53px 295.366px;" id="el2umf2m9gs2" class="animable"></path><path d="M229.45,276.76a.35.35,0,0,0-.51-.32,2.05,2.05,0,0,0,.08-.53c0-.34-.28-.51-.68-.28l-3.05,1.76v4h0a10.06,10.06,0,0,1,.92,1.13,8.54,8.54,0,0,1,0,1.43c0,.15.49-.07.81-.58h0a2.43,2.43,0,0,0,.18-.4,5.67,5.67,0,0,0,.18-.85,2.88,2.88,0,0,0-.06-1.07l1.84-1.06a.91.91,0,0,0,.36-.37,1.28,1.28,0,0,0,.19-.61c0-.37-.2-.45-.3-.46a1.13,1.13,0,0,0,.37-.8c0-.28-.17-.49-.45-.39A1.36,1.36,0,0,0,229.45,276.76Z" style="fill: #68B7C8; transform-origin: 227.535px 279.76px;" id="elmcdkmaswv6" class="animable"></path><path d="M224.85,278.15v-.84c0-.11-.08-.16-.18-.1l-1,.56h0a1.15,1.15,0,0,0-.18.16v4.58l.81-.46h0l.47-.28a.8.8,0,0,0,.05-.23Z" style="fill: #68B7C8; transform-origin: 224.17px 279.847px;" id="elkib386jjxw" class="animable"></path><path d="M253,263.9l-3.36-1v1.78a7.79,7.79,0,0,0-3.31,2.67c-1.85,2.76-.51,4.34.11,4.45,0,0-1-.67.1-2.65a6,6,0,0,1,3.1-2.32v2Z" style="fill: #68B7C8; transform-origin: 249.194px 267.35px;" id="el96bgp32fne" class="animable"></path><path d="M212.73,286.09l4.08-2.35c1.29-.75,2.33-.22,2.33,1.18a5,5,0,0,1-2.33,3.87l-4.08,2.35c-1.29.75-2.33.22-2.33-1.18A5,5,0,0,1,212.73,286.09Z" style="fill: rgb(224, 224, 224); transform-origin: 214.77px 287.44px;" id="el4zo27ssovzm" class="animable"></path><path d="M234.59,273.47l4.08-2.36c1.29-.74,2.33-.21,2.33,1.18a5,5,0,0,1-2.33,3.87l-4.08,2.36c-1.29.74-2.33.22-2.33-1.18A5,5,0,0,1,234.59,273.47Z" style="fill: rgb(224, 224, 224); transform-origin: 236.63px 274.816px;" id="el1fcixs1xxwx" class="animable"></path></g></g><g id="freepik--Video--inject-94" class="animable" style="transform-origin: 185.015px 235.585px;"><path d="M111.85,223l146.33-84.48c1.29-.75,2.33-.14,2.33,1.34V244.13a5.14,5.14,0,0,1-2.33,4L111.85,332.65c-1.28.75-2.33.14-2.33-1.34V227A5.17,5.17,0,0,1,111.85,223Z" style="fill: rgb(69, 90, 100); transform-origin: 185.015px 235.585px;" id="elxgz7wn6u59g" class="animable"></path><g id="freepik--Bar--inject-94" class="animable" style="transform-origin: 185.75px 284.379px;"><g id="el6ht1x4mv933"><path d="M128.76,316.09l107.4-61.75c.69-.4,1.26-.11,1.26.64a2.72,2.72,0,0,1-1.26,2.09l-107.4,61.75c-.7.4-1.26.11-1.26-.64A2.69,2.69,0,0,1,128.76,316.09Z" style="fill: rgb(255, 255, 255); opacity: 0.3; transform-origin: 182.46px 286.58px;" class="animable" id="elnbesrfo0op"></path></g><path d="M128.76,316.09l96.83-55.65c.7-.4,1.26-.11,1.26.64a2.69,2.69,0,0,1-1.26,2.09l-96.83,55.65c-.7.4-1.26.11-1.26-.64A2.69,2.69,0,0,1,128.76,316.09Z" style="fill: rgb(255, 255, 255); transform-origin: 177.175px 289.63px;" id="el4s7aafl3a2o" class="animable"></path><path d="M115.62,323.83v2.68a.41.41,0,0,1-.19.33l-.52.3a.12.12,0,0,1-.19-.11v-2.68a.44.44,0,0,1,.19-.33l.52-.3C115.54,323.66,115.62,323.71,115.62,323.83Z" style="fill: rgb(255, 255, 255); transform-origin: 115.17px 325.429px;" id="ely4w03mm2sw" class="animable"></path><path d="M117.42,322.79v2.68a.41.41,0,0,1-.19.33l-.51.3c-.11.06-.2,0-.2-.11v-2.68a.42.42,0,0,1,.2-.33l.51-.3C117.34,322.62,117.42,322.67,117.42,322.79Z" style="fill: rgb(255, 255, 255); transform-origin: 116.97px 324.389px;" id="elzmtikit1tq9" class="animable"></path><path d="M124.58,318.74v2.68a.44.44,0,0,1-.19.33l-.23.14c-.11.06-.19,0-.19-.11V319.1a.41.41,0,0,1,.19-.33l.23-.14A.12.12,0,0,1,124.58,318.74Z" style="fill: rgb(255, 255, 255); transform-origin: 124.275px 320.26px;" id="elavyzep9emrf" class="animable"></path><path d="M120.8,320.82v2.63c0,.19.1.23.23.08l2.42-2.79c.13-.15.07-.27-.12-.27h-2.18A.35.35,0,0,0,120.8,320.82Z" style="fill: rgb(255, 255, 255); transform-origin: 122.16px 322.046px;" id="ellogf8xb1odd" class="animable"></path><path d="M250,246.83a.31.31,0,0,1-.31-.31v-.88a.3.3,0,0,1,.15-.26l1.43-.82a.29.29,0,0,1,.41.11.31.31,0,0,1-.11.41l-1.27.73v.71A.31.31,0,0,1,250,246.83Z" style="fill: rgb(250, 250, 250); transform-origin: 250.703px 245.673px;" id="elb4i8cmgvd79" class="animable"></path><path d="M256.48,243.09a.3.3,0,0,1-.3-.3v-.37l-1,.56a.3.3,0,0,1-.41-.11.29.29,0,0,1,.11-.41l1.42-.82a.27.27,0,0,1,.3,0,.28.28,0,0,1,.15.26v.89A.3.3,0,0,1,256.48,243.09Z" style="fill: rgb(250, 250, 250); transform-origin: 255.738px 242.342px;" id="eli1juc13phde" class="animable"></path><path d="M250,250.86a.33.33,0,0,1-.15,0,.31.31,0,0,1-.16-.26v-.89a.31.31,0,0,1,.61,0V250l1-.56a.31.31,0,0,1,.41.11.32.32,0,0,1-.11.42l-1.42.82A.42.42,0,0,1,250,250.86Z" style="fill: rgb(250, 250, 250); transform-origin: 250.719px 250.136px;" id="el8agt9pgixm" class="animable"></path><path d="M255.06,247.94a.3.3,0,0,1-.15-.56l1.27-.74v-.71a.3.3,0,1,1,.6,0v.89a.28.28,0,0,1-.15.26l-1.42.82A.28.28,0,0,1,255.06,247.94Z" style="fill: rgb(250, 250, 250); transform-origin: 255.77px 246.785px;" id="el8l4yzcl1zbk" class="animable"></path><path d="M246.74,250.08h-.05l-.58,0a.09.09,0,0,1-.1-.09,2.45,2.45,0,0,0,0-.27c0-.1,0-.2,0-.29a.25.25,0,0,1,.06-.17l.64-.78a.17.17,0,0,0,0-.16l-.3-.68,0,0h0s-.06,0-.09,0l-.69.63a.14.14,0,0,1-.16,0,.92.92,0,0,0-.29-.17.11.11,0,0,1-.07-.12l.21-1s0-.05,0-.07h-.06l-.68.07a.19.19,0,0,0-.14.1l-.37,1a.28.28,0,0,1-.15.15,2.55,2.55,0,0,0-.41.24c-.06,0-.12,0-.15,0l-.34-.52s-.08,0-.13,0l-.74.78a.24.24,0,0,0-.06.17l.21.7a.25.25,0,0,1,0,.16c-.12.2-.24.39-.34.6a.29.29,0,0,1-.16.12l-.63.15a.21.21,0,0,0-.15.12l-.32,1.07a.08.08,0,0,0,.08.1l.58,0a.1.1,0,0,1,.1.1,2.53,2.53,0,0,0,0,.55.27.27,0,0,1-.06.17l-.65.79a.17.17,0,0,0,0,.16l.31.68s0,0,0,0h0s.05,0,.08,0l.69-.63a.12.12,0,0,1,.15,0,1.27,1.27,0,0,0,.29.18.1.1,0,0,1,.07.12l-.21,1s0,.05,0,.07h.06l.68-.07a.18.18,0,0,0,.15-.1l.36-1a.34.34,0,0,1,.15-.14l.21-.12.21-.12s.12-.05.14,0l.35.53v0a.11.11,0,0,0,.11,0l.74-.78a.19.19,0,0,0,.06-.16l-.21-.7a.28.28,0,0,1,0-.17,5,5,0,0,0,.34-.59.28.28,0,0,1,.16-.12l.64-.15c.06,0,.13-.07.14-.12l.32-1.08A.07.07,0,0,0,246.74,250.08Zm-3.39,2.62h-.25a.7.7,0,0,1-.64-.43,1.06,1.06,0,0,1-.09-.35,1.34,1.34,0,0,1,0-.2,3,3,0,0,1,.83-1.92,2.29,2.29,0,0,1,.51-.41l.17-.09a1.12,1.12,0,0,1,.48-.1h.08a.66.66,0,0,1,.53.42,2.55,2.55,0,0,1-.73,2.46A1.89,1.89,0,0,1,243.35,252.7Z" style="fill: rgb(255, 255, 255); transform-origin: 243.754px 251.01px;" id="elno01xjwkiyr" class="animable"></path></g><g id="freepik--Steps--inject-94" class="animable" style="transform-origin: 228.905px 192.728px;"><path d="M210.77,175.9c3.16-1.83,5.73-.35,5.73,3.3a12.68,12.68,0,0,1-5.73,9.92c-3.16,1.83-5.73.35-5.73-3.31A12.65,12.65,0,0,1,210.77,175.9Z" style="fill: #68B7C8; transform-origin: 210.77px 182.51px;" id="elgzh675s5fpm" class="animable"></path><text transform="matrix(0.65, -0.38, 0, 1, 208.49, 188.03)" style="font-size:11.501799583435059px;fill:#455a64;font-family:Rubik-Bold, Rubik;font-weight:700">1</text><path d="M223.6,171.35l27.79-16c.77-.44,1.38-.13,1.38.7a2.91,2.91,0,0,1-1.38,2.28L223.6,174.33c-.76.44-1.38.13-1.38-.7A3,3,0,0,1,223.6,171.35Z" style="fill: #68B7C8; transform-origin: 237.495px 164.84px;" id="elrqcmj8sedpp" class="animable"></path><path d="M223.17,176.71l19.07-11c.52-.3.95-.09.95.48a2,2,0,0,1-.95,1.57l-19.07,11c-.52.3-.95.09-.95-.48A2,2,0,0,1,223.17,176.71Z" style="fill: rgb(224, 224, 224); transform-origin: 232.705px 172.235px;" id="ela2sh2jp544k" class="animable"></path><path d="M210.77,195.75c3.16-1.82,5.73-.34,5.73,3.31a12.68,12.68,0,0,1-5.73,9.92c-3.16,1.82-5.73.34-5.73-3.31A12.68,12.68,0,0,1,210.77,195.75Z" style="fill: #68B7C8; transform-origin: 210.77px 202.365px;" id="elvis22dslevd" class="animable"></path><text transform="matrix(0.65, -0.38, 0, 1, 208.49, 207.89)" style="font-size:11.501799583435059px;fill:#455a64;font-family:Rubik-Bold, Rubik;font-weight:700">2</text><path d="M223.6,191.2l27.79-16c.77-.44,1.38-.13,1.38.69a2.93,2.93,0,0,1-1.38,2.29L223.6,194.19c-.76.44-1.38.13-1.38-.7A3,3,0,0,1,223.6,191.2Z" style="fill: #68B7C8; transform-origin: 237.495px 184.695px;" id="eltk1a0tkjmp" class="animable"></path><path d="M223.17,196.57l19.07-11c.52-.31.95-.09.95.47a2,2,0,0,1-.95,1.57l-19.07,11c-.52.3-.95.08-.95-.48A2,2,0,0,1,223.17,196.57Z" style="fill: rgb(224, 224, 224); transform-origin: 232.705px 192.087px;" id="el288344x7wx3" class="animable"></path><path d="M210.77,215.61c3.16-1.83,5.73-.35,5.73,3.31a12.65,12.65,0,0,1-5.73,9.91c-3.16,1.83-5.73.35-5.73-3.3A12.68,12.68,0,0,1,210.77,215.61Z" style="fill: #68B7C8; transform-origin: 210.77px 222.22px;" id="elrlxoomko4fn" class="animable"></path><text transform="matrix(0.65, -0.38, 0, 1, 208.49, 227.75)" style="font-size:11.501799583435059px;fill:#455a64;font-family:Rubik-Bold, Rubik;font-weight:700">3</text><path d="M223.6,211.06,251.39,195c.77-.44,1.38-.12,1.38.7a2.94,2.94,0,0,1-1.38,2.29L223.6,214.05c-.76.44-1.38.12-1.38-.7A3,3,0,0,1,223.6,211.06Z" style="fill: #68B7C8; transform-origin: 237.495px 204.525px;" id="elb678t9hznw6" class="animable"></path><path d="M223.17,216.43l19.07-11c.52-.3.95-.08.95.48a2,2,0,0,1-.95,1.57l-19.07,11c-.52.31-.95.09-.95-.47A2,2,0,0,1,223.17,216.43Z" style="fill: rgb(224, 224, 224); transform-origin: 232.705px 211.958px;" id="elf9jggk1ixzq" class="animable"></path></g></g><g id="freepik--Character--inject-94" class="animable" style="transform-origin: 180.765px 254.321px;"><path d="M186,242.12c-6.76.82-24.95,1.47-24.95,1.47h0c-12-5.27-21.38-16.83-22.57-29.86l-.52-5.61c-1-10.64,6.65-20.57,16.84-23.77a20.92,20.92,0,0,1,27.3,18c.25,2.76,1,5.2,3.23,7a20.77,20.77,0,0,0,4,2.24,18,18,0,0,1,5.45,3.71,8.07,8.07,0,0,1,2.33,6,7.58,7.58,0,0,1-1.61,3.89.91.91,0,0,0-.28.62.94.94,0,0,0,.23.44c2.07,2.65,3.16,6.31,1.92,9.43a9.21,9.21,0,0,1-4.29,4.51A18.55,18.55,0,0,1,187,242Z" style="fill: rgb(38, 50, 56); transform-origin: 167.883px 213.458px;" id="elnueiuzngu4" class="animable"></path><path d="M244.5,223.26a8,8,0,0,0-1.21-1.32c-.79-.73-1.88-1.4-2.89-1a3.23,3.23,0,0,0-1.4,1.34c-.64.94-1.4,1.81-2,2.78a27.18,27.18,0,0,1-2.83,4c-.45.54-1.1,1.28-1.87,1.05a.78.78,0,0,1-.36-.22.86.86,0,0,1-.16-.38,5.16,5.16,0,0,1,.11-2,4.19,4.19,0,0,0,0-2,1.54,1.54,0,0,0-1.48-1.12.73.73,0,0,0-.49.23,1,1,0,0,0-.2.33,32.19,32.19,0,0,0-2.83,8.19,24.5,24.5,0,0,1-.68,3.73c-.85,2.64-3.94,4-6.11,5.53A167.65,167.65,0,0,1,205.48,251c-2.46-2.16-18-15.72-22.29-19.3-6.18-5.14-12.74-2.84-13.63-2.77s-2.07,6,5.2,14.6c0,0,22.67,19.18,27,21.67,1.07.61,2.52,1.88,4.27,1.81h.06l.22,0a3,3,0,0,0,.69-.14h0c2.15-.69,5.22-3.35,6.51-4.35a244.32,244.32,0,0,0,18.66-16.66c1.69-1.64,3.61-3,5.44-4.49a23.83,23.83,0,0,0,6-6.67,13.23,13.23,0,0,0,2.11-6.06A8.26,8.26,0,0,0,244.5,223.26Z" style="fill: rgb(255, 168, 167); transform-origin: 207.335px 243.916px;" id="elupproi89kec" class="animable"></path><path d="M145.43,275.29c-5.35,12-6.65,19-7.07,25.53s.2,16.41.2,16.41L185.79,290a133.94,133.94,0,0,0-4.64-19.64Z" style="fill: #68B7C8; transform-origin: 162.002px 293.795px;" id="elf9d7ne8xd3" class="animable"></path><path d="M181.22,255.52l-.28,12.38c.62,2.43,1.61,6.4,2.72,10-.7,2.19-5.87,8.08-16.85,11.73-11.6,3.86-24.83-.12-26.3-3l4.6-11.65s-4-15.45-4.06-15.64,4.29-6.47,4.58-14-1.79-10.76-2.45-11.48c.3-.13,7.07-2,7.07-2l13.5-2.7,6.35-.41a27.88,27.88,0,0,1,12.23,12.36A13.27,13.27,0,0,1,181.22,255.52Z" style="fill: rgb(250, 250, 250); transform-origin: 162.229px 259.989px;" id="elkg8vf8io8zn" class="animable"></path><path d="M173.54,193.4c1.41,1.44,4.26,4.89,4,17.4-.27,10.61-3.71,13.22-5.44,14s-5.06.28-8.29-.26v5.17s4.58,3.19,5.73,6.08c.9,2.25-4.82,5.39-13.5,1.65-3.55-1.53-6.41-5.42-6.41-5.42l.11-15.32s-1.91,1.84-5.13-1c-2.66-2.33-3.55-6.27-1.47-8.37a4.65,4.65,0,0,1,7.39,1.49,24.72,24.72,0,0,0,12.69-3.28C170.05,201.76,173.08,197.52,173.54,193.4Z" style="fill: rgb(255, 168, 167); transform-origin: 159.773px 216.287px;" id="el9uzemwodi5n" class="animable"></path><path d="M165.5,208.89a1.33,1.33,0,1,1-1.4-1.32A1.36,1.36,0,0,1,165.5,208.89Z" style="fill: rgb(38, 50, 56); transform-origin: 164.17px 208.899px;" id="elkm8s7p0pzda" class="animable"></path><path d="M164.48,216.75l5,.91a2.5,2.5,0,0,1-2.9,2.13A2.66,2.66,0,0,1,164.48,216.75Z" style="fill: rgb(177, 102, 104); transform-origin: 166.962px 218.288px;" id="elc1drl6bn6j7" class="animable"></path><path d="M166.59,219.79a2.45,2.45,0,0,0,1,0,2.19,2.19,0,0,0-2.18-2.09,2.13,2.13,0,0,0-.88.18A2.63,2.63,0,0,0,166.59,219.79Z" style="fill: rgb(242, 143, 143); transform-origin: 166.06px 218.771px;" id="elnleio7mdrj" class="animable"></path><path d="M176.1,204.61l-3-1.23a1.57,1.57,0,0,1,2.08-.94A1.72,1.72,0,0,1,176.1,204.61Z" style="fill: rgb(38, 50, 56); transform-origin: 174.653px 203.466px;" id="elewt76vm4879" class="animable"></path><path d="M175.4,207.91a1.33,1.33,0,1,1-1.4-1.33A1.37,1.37,0,0,1,175.4,207.91Z" style="fill: rgb(38, 50, 56); transform-origin: 174.07px 207.909px;" id="el4mg3hhjmskk" class="animable"></path><polygon points="169.15 207.37 170.07 215.13 174.07 213.23 169.15 207.37" style="fill: rgb(242, 143, 143); transform-origin: 171.61px 211.25px;" id="elt1buagk9ws9" class="animable"></polygon><path d="M163.76,224.51c-3.41-.46-10.42-2.49-11.51-5.27a7.18,7.18,0,0,0,2.45,3.55c2.09,1.8,9.05,3.84,9.05,3.84Z" style="fill: rgb(242, 143, 143); transform-origin: 158.005px 222.935px;" id="elpyfijurd2" class="animable"></path><path d="M150,212.68a3.3,3.3,0,0,0-.56-6.58Z" style="fill: rgb(38, 50, 56); transform-origin: 151.231px 209.384px;" id="elb4pzzpwevzf" class="animable"></path><path d="M116,281.74c1.47,8.81,4.69,17,14.35,33.41a28.28,28.28,0,0,0,4,5.55,17.35,17.35,0,0,0,5.81,4.13,6.27,6.27,0,0,0,4.06.27c2.62-.63,4.85-2.66,5.05-3.91.27-1.68-2.74-3.38-3.92-4.6-1-1-3-2.69-3.67-3.61s-1.43-1.66-.59-1.63c.51,0,1,.19,1.49.25a6.65,6.65,0,0,0,1.26,0,2.89,2.89,0,0,0,2.28-.87,1,1,0,0,0,.11-1.1,1.64,1.64,0,0,0-.74-.52,21.17,21.17,0,0,1-2.69-1.24,24.31,24.31,0,0,1-2.49-1.64c-1.22-1-2.88-2.08-3.63-3.47a43.86,43.86,0,0,1-4.24-10.69c-.68-2.6-2-7.59-2.68-12.32.22-.6,3.27-6.21,5.24-9.47,2.83-4.69,5.53-8.71,8.14-12.89,5.51-6.72,5-19.53.12-23.52-8.58,2.2-11.05,5.89-13.88,11.36-2.76,5.32-10.18,20.16-12.63,27.49A18.57,18.57,0,0,0,116,281.74Z" style="fill: rgb(255, 168, 167); transform-origin: 132.52px 279.594px;" id="elx4e5dkcror" class="animable"></path></g><g id="freepik--Scissors--inject-94" class="animable" style="transform-origin: 375.807px 411.645px;"><g id="freepik--scissors--inject-94" class="animable" style="transform-origin: 375.807px 411.645px;"><path d="M366,406.84l82.7-18.32.17,2.24s-1.77,3-21.09,8.72-67.1,15.83-67.1,15.83l-2-2.65Z" style="fill: rgb(38, 50, 56); transform-origin: 403.775px 401.915px;" id="elpsfzjqxloj" class="animable"></path><path d="M425.34,370.17s-4.9,7.73-10.68,12.27-36.73,31.37-36.73,31.37l-10,5.53-3-1.73,4.5-10.47s34.95-24.79,42.51-30S426.31,368.73,425.34,370.17Z" style="fill: rgb(55, 71, 79); transform-origin: 395.181px 394.582px;" id="elyjcyzjsljlh" class="animable"></path><polygon points="364.95 415.17 367.95 416.9 367.17 418.89 364.95 417.61 364.95 415.17" style="fill: rgb(38, 50, 56); transform-origin: 366.45px 417.03px;" id="eltaagsuk2uka" class="animable"></polygon><polygon points="425.42 367.48 425.42 369.96 422.93 373.61 422.93 369.77 425.42 367.48" style="fill: rgb(55, 71, 79); transform-origin: 424.175px 370.545px;" id="elwcrfio465lb" class="animable"></polygon><path d="M377,446.54c3.85-6-.64-11.65-.2-16.79s1.12-15.94,1.12-15.94l-10,5.53s-3.32,8.48-4.7,12.05-7.34,7.34-11,10.42-6.73,10.44,3.49,13.31S373.16,452.51,377,446.54Zm-18,4.58c-3.94-1.14-5.12-4.37-2.64-7.22s7.68-4.24,11.62-3.1,5.11,4.38,2.63,7.23S363,452.26,359,451.12Z" style="fill: #68B7C8; transform-origin: 363.665px 434.858px;" id="elo33uzxf85y" class="animable"></path><g id="ello8mv7l763"><path d="M377,446.54c3.85-6-.64-11.65-.2-16.79s1.12-15.94,1.12-15.94l-10,5.53s-3.32,8.48-4.7,12.05-7.34,7.34-11,10.42-6.73,10.44,3.49,13.31S373.16,452.51,377,446.54Zm-18,4.58c-3.94-1.14-5.12-4.37-2.64-7.22s7.68-4.24,11.62-3.1,5.11,4.38,2.63,7.23S363,452.26,359,451.12Z" style="opacity: 0.2; transform-origin: 363.665px 434.858px;" class="animable" id="elzpqpf7jaq6q"></path></g><path d="M377.41,410.07a4.33,4.33,0,0,1-4.11.78c-1.51-.43-2.12-1.5-1.36-2.37a4.33,4.33,0,0,1,4.11-.78C377.56,408.13,378.17,409.2,377.41,410.07Z" style="fill: rgb(38, 50, 56); transform-origin: 374.675px 409.275px;" id="el0bn01wi7xzh" class="animable"></path><path d="M365.92,405.65s-11.82,2.18-15.71,2.54-9.52-.47-19.25.42-27.25,9.24-28.15,17.34,7.5,8.7,13.53,7.25,9.37-3.68,19.7-8.85c13.79-6.89,22.94-11.26,22.94-11.26l7.73-6.4ZM343,416.57a126,126,0,0,0-16.42,6.64c-6.59,3.26-8.17,5.47-12.29,6.44-3.35.79-6.66-1.09-5-4.77,1.79-3.92,6.74-8,15.85-11s16.59-2.44,19.92-.68C346.39,413.92,347,415.26,343,416.57Z" style="fill: #68B7C8; transform-origin: 334.727px 419.735px;" id="el9k43km4grzi" class="animable"></path><g id="elf32a8talkll"><path d="M365.92,405.65s-11.82,2.18-15.71,2.54-9.52-.47-19.25.42-27.25,9.24-28.15,17.34,7.5,8.7,13.53,7.25,9.37-3.68,19.7-8.85c13.79-6.89,22.94-11.26,22.94-11.26l7.73-6.4ZM343,416.57a126,126,0,0,0-16.42,6.64c-6.59,3.26-8.17,5.47-12.29,6.44-3.35.79-6.66-1.09-5-4.77,1.79-3.92,6.74-8,15.85-11s16.59-2.44,19.92-.68C346.39,413.92,347,415.26,343,416.57Z" style="opacity: 0.2; transform-origin: 334.727px 419.735px;" class="animable" id="elql24xu5pd2a"></path></g><polygon points="360.64 415.31 360.64 412.87 358.98 410.65 358.98 413.09 360.64 415.31" style="fill: rgb(38, 50, 56); transform-origin: 359.81px 412.98px;" id="elytw9tw52m4" class="animable"></polygon><path d="M366,404.4l82.87-16.08s-1.77,3-21.09,8.73-67.1,15.82-67.1,15.82l-2-2.65Z" style="fill: rgb(55, 71, 79); transform-origin: 403.775px 400.595px;" id="el1latvkbibjb" class="animable"></path><path d="M425.34,367.73s-4.9,7.74-10.68,12.28-36.73,31.37-36.73,31.37l-10,5.52-3-1.73,4.5-10.47s34.95-24.79,42.51-30S426.31,366.29,425.34,367.73Z" style="fill: rgb(69, 90, 100); transform-origin: 395.181px 392.142px;" id="el2o2q80kk2f3" class="animable"></path><path d="M377,444.1c3.85-6-.64-11.65-.2-16.79s1.12-15.93,1.12-15.93l-10,5.52s-3.32,8.48-4.7,12.06-7.34,7.33-11,10.41-6.73,10.44,3.49,13.32S373.16,450.07,377,444.1Zm-18,4.59c-3.94-1.14-5.12-4.38-2.64-7.23s7.68-4.23,11.62-3.09,5.11,4.37,2.63,7.22S363,449.83,359,448.69Z" style="fill: #68B7C8; transform-origin: 363.665px 432.429px;" id="el24xvhfu4w8d" class="animable"></path><path d="M377.41,407.63a4.33,4.33,0,0,1-4.11.79c-1.51-.44-2.12-1.5-1.36-2.38a4.33,4.33,0,0,1,4.11-.78C377.56,405.7,378.17,406.76,377.41,407.63Z" style="fill: rgb(38, 50, 56); transform-origin: 374.675px 406.839px;" id="el8ez53jrphgv" class="animable"></path><path d="M365.92,403.21s-11.82,2.19-15.71,2.55-9.52-.47-19.25.41-27.25,9.24-28.15,17.34,7.5,8.71,13.53,7.25,9.37-3.68,19.7-8.84C349.83,415,359,410.65,359,410.65l7.73-6.39ZM343,414.13a124.86,124.86,0,0,0-16.42,6.65c-6.59,3.25-8.17,5.46-12.29,6.43-3.35.8-6.66-1.09-5-4.77,1.79-3.91,6.74-8,15.85-10.95s16.59-2.45,19.92-.69C346.39,411.48,347,412.82,343,414.13Z" style="fill: #68B7C8; transform-origin: 334.737px 417.297px;" id="el6a2wor6pdl3" class="animable"></path></g></g><g id="freepik--Pencil--inject-94" class="animable" style="transform-origin: 249.668px 415.496px;"><g id="freepik--pencil--inject-94" class="animable" style="transform-origin: 249.668px 415.496px;"><path d="M292.69,378.86l24.13-4.73a.75.75,0,0,1,.7,1.23l-16.37,18.53Z" style="fill: rgb(255, 168, 167); transform-origin: 305.197px 384.004px;" id="elbh2x9n9kz4l" class="animable"></path><path d="M317.52,375.36a.75.75,0,0,0-.7-1.23l-4.71.93h0a4.11,4.11,0,0,1,1.94,3.85l0,.42Z" style="fill: rgb(38, 50, 56); transform-origin: 314.907px 376.724px;" id="elkab3hx69esj" class="animable"></path><path d="M210.34,446l2-1.13,2.39-1.36,86.45-49.57a11,11,0,0,0-.67-8c-1.71-3.83-5-6.85-7.78-7l-86.41,49.54L201.74,431C204.78,429.5,213.37,444.39,210.34,446Z" style="fill: #68B7C8; transform-origin: 251.69px 412.47px;" id="elxcsvvr3gvm" class="animable"></path><path d="M217.87,441.67l4.4-2.53c1.3-.69.55-3.89-1-7.19-2-4.39-6-8.65-7.69-7.73l-3.25,1.86-1.15.69c1.72-.92,5.69,3.33,7.7,7.73,1.45,3.16,2.19,6.25,1.09,7.08h0A.23.23,0,0,1,217.87,441.67Z" style="fill: rgb(235, 235, 235); transform-origin: 216.058px 432.882px;" id="el03gp5tdozjjk" class="animable"></path><path d="M219,441c3-1.6-5.63-16.51-8.66-14.91l-4.41,2.53c3-1.61,11.68,13.3,8.65,14.9Z" style="fill: #68B7C8; transform-origin: 212.777px 434.745px;" id="eludhtfrxag1h" class="animable"></path><path d="M210.34,446l4.36-2.49c3-1.55-5.25-16-8.41-15.06l-.18.07L201.74,431C204.78,429.5,213.37,444.39,210.34,446Z" style="fill: rgb(235, 235, 235); transform-origin: 208.543px 437.203px;" id="el3cgctlbbfku" class="animable"></path><g id="elroovp1cpx2t"><path d="M317.63,374.55l-.81-.42-17.51,9.58-91.37,52.41c-.17-.27-.31-.29-.42-.1,2.57,4,4.51,9.06,2.82,9.94l2-1.13,2.39-1.36,86.45-49.57h0l16.37-18.53A.72.72,0,0,0,317.63,374.55Z" style="opacity: 0.15; transform-origin: 262.621px 410.045px;" class="animable" id="elv6mo3ovzvn9"></path></g><path d="M191.85,456.54,210.34,446c1.3-.67.58-3.84-.92-7.12-2-4.4-5.94-8.69-7.68-7.82h0l-18.55,10.62c-3.68,2.13-.3,10.13,3.81,13.7C188.51,456.7,190.22,457.3,191.85,456.54Z" style="fill: rgb(242, 143, 143); transform-origin: 196.315px 443.91px;" id="elps2vh8zisgl" class="animable"></path><g id="el1wcpetzpvxf"><path d="M193,450.8c-1.06-4.16-4.44-8.25-7.54-9.12a3,3,0,0,0-2.77.37c-2.78,2.58.46,9.92,4.34,13.3,1.5,1.33,3.18,1.92,4.77,1.22C193.14,455.76,193.67,453.63,193,450.8Z" style="opacity: 0.1; transform-origin: 187.469px 449.182px;" class="animable" id="el0t4iga6dh7cd"></path></g></g></g><defs>     <filter id="active" height="200%">         <feMorphology in="SourceAlpha" result="DILATED" operator="dilate" radius="2"></feMorphology>                <feFlood flood-color="#32DFEC" flood-opacity="1" result="PINK"></feFlood>        <feComposite in="PINK" in2="DILATED" operator="in" result="OUTLINE"></feComposite>        <feMerge>            <feMergeNode in="OUTLINE"></feMergeNode>            <feMergeNode in="SourceGraphic"></feMergeNode>        </feMerge>    </filter>    <filter id="hover" height="200%">        <feMorphology in="SourceAlpha" result="DILATED" operator="dilate" radius="2"></feMorphology>                <feFlood flood-color="#ff0000" flood-opacity="0.5" result="PINK"></feFlood>        <feComposite in="PINK" in2="DILATED" operator="in" result="OUTLINE"></feComposite>        <feMerge>            <feMergeNode in="OUTLINE"></feMergeNode>            <feMergeNode in="SourceGraphic"></feMergeNode>        </feMerge>            <feColorMatrix type="matrix" values="0   0   0   0   0                0   1   0   0   0                0   0   0   0   0                0   0   0   1   0 "></feColorMatrix>    </filter></defs></svg>